<svg width="36" height="36" viewBox="0 0 36 36" fill="none" xmlns="http://www.w3.org/2000/svg">
<path d="M13 11.7501C12.9971 12.1521 13.018 12.5538 13.0625 12.9532L1.37504 28.8907C1.02107 29.3728 0.851661 29.9658 0.897536 30.5621C0.943399 31.1583 1.20151 31.7185 1.62504 32.1407L3.85941 34.3751C4.28167 34.7986 4.84176 35.0567 5.43806 35.1026C6.03436 35.1485 6.62735 34.9791 7.10941 34.6251L23.0469 22.9376C23.4464 22.9822 23.8481 23.0031 24.25 23.0001C26.5464 23.0003 28.7876 22.2968 30.6719 20.9845C30.7461 20.9317 30.808 20.8633 30.853 20.7842C30.8981 20.705 30.9252 20.617 30.9327 20.5261C30.9402 20.4353 30.9277 20.344 30.8961 20.2585C30.8646 20.1731 30.8147 20.0956 30.75 20.0313L15.9687 5.25012C15.9046 5.18544 15.8271 5.13558 15.7416 5.10402C15.6561 5.07245 15.5649 5.05997 15.474 5.0674C15.3832 5.07484 15.2951 5.10205 15.216 5.1471C15.1367 5.19217 15.0685 5.25399 15.0156 5.32824C13.7032 7.21257 12.9997 9.4538 13 11.7501ZM15.7656 22.0157L12.6406 25.1407C12.4017 25.3717 12.0824 25.501 11.75 25.501C11.4176 25.501 11.0984 25.3717 10.8594 25.1407C10.6246 24.9037 10.493 24.5837 10.493 24.2501C10.493 23.9166 10.6246 23.5965 10.8594 23.3595L13.9844 20.2345C14.2272 20.0352 14.5356 19.9333 14.8494 19.9487C15.1632 19.9641 15.4601 20.0957 15.6822 20.3178C15.9045 20.5401 16.036 20.837 16.0515 21.1507C16.0669 21.4646 15.965 21.7728 15.7656 22.0157ZM35.4844 11.1251C35.6226 13.6315 34.9185 16.112 33.4844 18.172C33.4316 18.2462 33.3632 18.3081 33.2841 18.3531C33.2049 18.3982 33.1169 18.4253 33.026 18.4328C32.9352 18.4403 32.8439 18.4278 32.7585 18.3962C32.673 18.3647 32.5955 18.3148 32.5312 18.2501L17.75 3.46887C17.6854 3.4047 17.6355 3.32718 17.6039 3.24172C17.5724 3.15625 17.5599 3.06493 17.5674 2.97413C17.5747 2.88333 17.602 2.79525 17.647 2.71608C17.6921 2.63689 17.7539 2.56852 17.8281 2.51574C19.4716 1.37267 21.3904 0.688841 23.3862 0.534816C25.3822 0.380791 27.3831 0.762154 29.1825 1.63955C30.9819 2.51694 32.5146 3.85859 33.6224 5.52604C34.7301 7.19348 35.373 9.12633 35.4844 11.1251Z" fill="#017CFF"/>
</svg>
