<svg width="34" height="32" viewBox="0 0 34 32" fill="none" xmlns="http://www.w3.org/2000/svg">
<path d="M33.25 10.4999V29.25C33.25 29.913 32.9866 30.5488 32.5177 31.0177C32.0489 31.4866 31.413 31.75 30.75 31.75H3.25C2.58696 31.75 1.95107 31.4866 1.48224 31.0177C1.01339 30.5488 0.75 29.913 0.75 29.25V10.4999C0.75 9.83691 1.01339 9.20102 1.48224 8.73218C1.95107 8.26335 2.58696 7.99995 3.25 7.99995H13.9844L8.60938 2.64057C8.41005 2.39771 8.30819 2.08937 8.3236 1.77556C8.33901 1.46175 8.4706 1.16488 8.69276 0.942709C8.91494 0.720546 9.2118 0.588959 9.52563 0.573546C9.83938 0.558134 10.1477 0.659996 10.3906 0.859321L17 7.48432L23.6094 0.859321C23.8523 0.659996 24.1606 0.558134 24.4744 0.573546C24.7882 0.588959 25.0851 0.720546 25.3072 0.942709C25.5294 1.16488 25.661 1.46175 25.6764 1.77556C25.6919 2.08937 25.59 2.39771 25.3906 2.64057L20.0156 7.99995H30.75C31.413 7.99995 32.0489 8.26335 32.5177 8.73218C32.9866 9.20102 33.25 9.83691 33.25 10.4999Z" fill="#E48D8B"/>
</svg>
