<svg width="35" height="35" viewBox="0 0 35 35" fill="none" xmlns="http://www.w3.org/2000/svg">
<path d="M34.25 5.75C34.25 6.08152 34.1183 6.39946 33.8839 6.63389C33.6495 6.8683 33.3315 7 33 7H30.5V9.5C30.5 9.8315 30.3683 10.1495 30.1339 10.3839C29.8995 10.6182 29.5815 10.75 29.25 10.75C28.9185 10.75 28.6005 10.6182 28.3661 10.3839C28.1318 10.1495 28 9.8315 28 9.5V7H25.5C25.1685 7 24.8505 6.8683 24.6161 6.63389C24.3818 6.39946 24.25 6.08152 24.25 5.75C24.25 5.41848 24.3818 5.10054 24.6161 4.86611C24.8505 4.6317 25.1685 4.5 25.5 4.5H28V2C28 1.66848 28.1318 1.35054 28.3661 1.11611C28.6005 0.8817 28.9185 0.75 29.25 0.75C29.5815 0.75 29.8995 0.8817 30.1339 1.11611C30.3683 1.35054 30.5 1.66848 30.5 2V4.5H33C33.3315 4.5 33.6495 4.6317 33.8839 4.86611C34.1183 5.10054 34.25 5.41848 34.25 5.75ZM30.5 14.375C30.1685 14.375 29.8505 14.5068 29.6161 14.7411C29.3818 14.9755 29.25 15.2935 29.25 15.625V19.2031C28.3285 18.5771 27.239 18.2449 26.125 18.25C25.0125 18.25 23.925 18.5799 22.9999 19.198C22.0749 19.8161 21.3539 20.6946 20.9281 21.7224C20.5025 22.7503 20.391 23.8812 20.6081 24.9724C20.8251 26.0635 21.3609 27.0657 22.1475 27.8525C22.9343 28.6391 23.9365 29.1749 25.0276 29.3919C26.1188 29.609 27.2498 29.4976 28.2776 29.0719C29.3054 28.6461 30.1839 27.9251 30.802 27.0001C31.4201 26.075 31.75 24.9875 31.75 23.875V15.625C31.75 15.2935 31.6183 14.9755 31.3839 14.7411C31.1495 14.5068 30.8315 14.375 30.5 14.375ZM23.375 12.5469C23.543 12.4712 23.6919 12.3591 23.8109 12.2185C23.9298 12.078 24.0158 11.9125 24.0625 11.7344C24.1154 11.5238 24.1144 11.3031 24.0598 11.0929C24.0053 10.8827 23.8986 10.6896 23.75 10.5312C23.631 10.4199 23.4935 10.33 23.3438 10.2656C22.4951 9.85388 21.7789 9.21256 21.2763 8.41441C20.7736 7.61626 20.5046 6.69322 20.5 5.75C20.5 5.50446 20.5158 5.25917 20.5469 5.01562C20.5838 4.82401 20.5746 4.6264 20.5203 4.43899C20.466 4.25157 20.368 4.07971 20.2344 3.9375C20.081 3.77548 19.8874 3.6569 19.6734 3.59379C19.4594 3.53068 19.2324 3.52527 19.0156 3.57812L10.2031 5.78125C9.9305 5.8479 9.68824 6.00436 9.51535 6.22544C9.34245 6.44651 9.24899 6.71935 9.25 7V24.2031C8.32849 23.5771 7.23903 23.2449 6.125 23.25C5.01249 23.25 3.92495 23.5799 2.99993 24.198C2.07489 24.8161 1.35393 25.6946 0.928177 26.7224C0.50244 27.7503 0.39104 28.8812 0.60809 29.9724C0.825127 31.0635 1.36085 32.0657 2.14753 32.8525C2.9342 33.6391 3.93648 34.1749 5.02763 34.3919C6.11876 34.609 7.24977 34.4976 8.2776 34.0719C9.30543 33.6461 10.1839 32.9251 10.802 32.0001C11.4201 31.075 11.75 29.9875 11.75 28.875V15.4688L23.125 12.625L23.375 12.5469Z" fill="#E48D8B"/>
</svg>
