<svg width="40" height="29" viewBox="0 0 40 29" fill="none" xmlns="http://www.w3.org/2000/svg">
<path d="M9.99999 15.8748C10.0021 16.0395 9.97119 16.203 9.90911 16.3557C9.84704 16.5083 9.75504 16.6469 9.63855 16.7634C9.52205 16.8799 9.38342 16.9718 9.23081 17.0339C9.07821 17.096 8.91473 17.1269 8.74999 17.1248H1.87499C1.64276 17.1229 1.41543 17.0579 1.21727 16.9369C1.01912 16.8158 0.857599 16.643 0.749988 16.4373C0.649922 16.2278 0.608694 15.9949 0.630711 15.7638C0.652727 15.5325 0.737164 15.3117 0.874989 15.1248C1.98121 13.6398 3.45735 12.4708 5.15624 11.7342C4.42623 11.0659 3.86534 10.2339 3.51975 9.30654C3.17416 8.37917 3.05374 7.38291 3.1684 6.39993C3.28306 5.41691 3.62953 4.47518 4.17928 3.65224C4.72903 2.82929 5.46635 2.14866 6.33056 1.66638C7.19478 1.18409 8.16116 0.913927 9.15019 0.878115C10.1392 0.842315 11.1226 1.04189 12.0194 1.46043C12.9163 1.87896 13.7009 2.50449 14.3086 3.28553C14.9165 4.06656 15.3301 4.98078 15.5156 5.95293C15.5619 6.20613 15.5298 6.46739 15.4236 6.70192C15.3176 6.93642 15.1425 7.13304 14.9219 7.26542C12.901 8.46379 11.364 10.3325 10.5781 12.5467C10.1907 13.6133 9.99499 14.74 9.99999 15.8748ZM39.125 15.1248C38.0188 13.6398 36.5426 12.4708 34.8438 11.7342C35.5738 11.0659 36.1346 10.2339 36.4803 9.30654C36.8258 8.37917 36.9463 7.38291 36.8316 6.39993C36.7169 5.41691 36.3704 4.47518 35.8206 3.65224C35.2709 2.82929 34.5336 2.14866 33.6694 1.66638C32.8051 1.18409 31.8388 0.913927 30.8498 0.878115C29.8608 0.842315 28.8774 1.04189 27.9805 1.46043C27.0838 1.87896 26.2991 2.50449 25.6913 3.28553C25.0835 4.06656 24.6698 4.98078 24.4844 5.95293C24.4381 6.20613 24.4701 6.46739 24.5763 6.70192C24.6824 6.93642 24.8574 7.13304 25.0781 7.26542C27.1016 8.46067 28.6395 10.3305 29.4219 12.5467C29.8093 13.6133 30.005 14.74 30 15.8748C29.9979 16.0395 30.0288 16.203 30.0909 16.3557C30.1529 16.5083 30.2449 16.6469 30.3614 16.7634C30.4779 16.8799 30.6165 16.9718 30.7691 17.0339C30.9218 17.096 31.0853 17.1269 31.25 17.1248H38.125C38.3571 17.1248 38.5846 17.0602 38.7821 16.9382C38.9796 16.816 39.1393 16.6414 39.243 16.4338C39.3469 16.2262 39.3908 15.9938 39.3699 15.7625C39.3491 15.5313 39.2643 15.3105 39.125 15.1248ZM24.5625 21.8279C25.8065 20.8744 26.7205 19.555 27.1761 18.0554C27.6318 16.5557 27.606 14.9508 27.1026 13.4664C26.5991 11.982 25.6434 10.6927 24.3694 9.77954C23.0954 8.86642 21.5674 8.37529 20 8.37529C18.4325 8.37529 16.9045 8.86642 15.6306 9.77954C14.3566 10.6927 13.4008 11.982 12.8974 13.4664C12.3939 14.9508 12.3682 16.5557 12.8238 18.0554C13.2794 19.555 14.1935 20.8744 15.4375 21.8279C13.007 22.9069 11.0367 24.8109 9.87499 27.2029C9.78255 27.393 9.74117 27.6039 9.75485 27.8148C9.76855 28.0258 9.83688 28.2295 9.95311 28.406C10.0613 28.5872 10.2146 28.737 10.3982 28.8412C10.5817 28.9453 10.789 28.9999 11 28.9998H29C29.2109 28.9999 29.4183 28.9453 29.6019 28.8412C29.7854 28.737 29.9386 28.5872 30.0469 28.406C30.1631 28.2295 30.2314 28.0258 30.2451 27.8148C30.2588 27.6039 30.2174 27.393 30.125 27.2029C28.9633 24.8109 26.9929 22.9069 24.5625 21.8279Z" fill="#017CFF"/>
</svg>
