<svg width="34" height="29" viewBox="0 0 34 29" fill="none" xmlns="http://www.w3.org/2000/svg">
<path d="M29.5 3.75005H25.1719L23.0469 0.562551C22.9338 0.388276 22.7786 0.245352 22.5956 0.147027C22.4126 0.0487016 22.2078 -0.00184835 22 5.16485e-05H12C11.7922 -0.00184835 11.5874 0.0487016 11.4044 0.147027C11.2214 0.245352 11.0663 0.388276 10.9531 0.562551L8.82812 3.75005H4.5C3.5067 3.75416 2.55526 4.15058 1.85289 4.85295C1.15052 5.55531 0.754112 6.50676 0.75 7.5V25C0.754112 25.9934 1.15052 26.9448 1.85289 27.6471C2.55526 28.3495 3.5067 28.746 4.5 28.75H29.5C30.4932 28.746 31.4447 28.3495 32.1471 27.6471C32.8495 26.9448 33.2459 25.9934 33.25 25V7.5C33.2459 6.50676 32.8495 5.55531 32.1471 4.85295C31.4447 4.15058 30.4932 3.75416 29.5 3.75005ZM22.2969 20.9219C21.6027 21.6201 20.7775 22.1743 19.8684 22.5524C18.9594 22.9305 17.9845 23.1253 17 23.1253C16.0155 23.1253 15.0406 22.9305 14.1316 22.5524C13.2225 22.1743 12.3973 21.6201 11.7031 20.9219H11.6875L10.9531 20.1563L10.7344 21.4531C10.6833 21.7444 10.5319 22.0085 10.3064 22.1998C10.0809 22.391 9.79562 22.4973 9.5 22.5H9.29688C9.13471 22.4735 8.97939 22.4153 8.83978 22.3286C8.70015 22.242 8.57899 22.1286 8.4832 21.9951C8.38742 21.8616 8.3189 21.7105 8.28158 21.5505C8.24424 21.3905 8.23881 21.2246 8.26562 21.0625L8.89062 17.3125C8.93515 17.0553 9.05815 16.8181 9.24277 16.6335C9.4274 16.4489 9.66462 16.3259 9.92188 16.2812L13.6719 15.6563C13.9992 15.6024 14.3346 15.6809 14.6042 15.8743C14.8737 16.0676 15.0555 16.3601 15.1094 16.6875C15.1632 17.0149 15.0849 17.3503 14.8915 17.6199C14.6981 17.8895 14.4055 18.0711 14.0781 18.125L12.6719 18.3594L13.4688 19.1875C14.4097 20.1143 15.6792 20.6311 17 20.625C17.6569 20.6283 18.3076 20.5 18.9141 20.2478C19.5206 19.9955 20.0704 19.6244 20.5312 19.1563C20.7656 18.9225 21.0831 18.7913 21.414 18.7913C21.745 18.7913 22.0625 18.9225 22.2969 19.1563C22.4145 19.2713 22.508 19.4086 22.5719 19.5602C22.6356 19.7118 22.6685 19.8746 22.6685 20.0391C22.6685 20.2036 22.6356 20.3664 22.5719 20.518C22.508 20.6696 22.4145 20.807 22.2969 20.9219ZM25.7344 10.2031L25.1094 13.9531C25.0649 14.2105 24.9419 14.4476 24.7572 14.6323C24.5726 14.8169 24.3354 14.9399 24.0781 14.9844L20.3281 15.6094H20.125C19.8294 15.6066 19.5441 15.5004 19.3186 15.3091C19.0931 15.1179 18.9418 14.8538 18.8906 14.5625C18.8639 14.4004 18.8692 14.2346 18.9066 14.0746C18.9439 13.9146 19.0124 13.7635 19.1082 13.63C19.204 13.4965 19.3251 13.3831 19.4648 13.2965C19.6044 13.2099 19.7598 13.1516 19.9219 13.125L21.3281 12.8906L20.5312 12.0625C19.5903 11.1358 18.3207 10.619 17 10.625C16.3431 10.6219 15.6924 10.7501 15.0859 11.0024C14.4794 11.2546 13.9296 11.6258 13.4688 12.0938C13.2344 12.3276 12.9169 12.4589 12.586 12.4589C12.255 12.4589 11.9375 12.3276 11.7031 12.0938C11.5855 11.9789 11.492 11.8415 11.4282 11.6899C11.3644 11.5383 11.3315 11.3755 11.3315 11.211C11.3315 11.0465 11.3644 10.8836 11.4282 10.7321C11.492 10.5805 11.5855 10.4431 11.7031 10.3281C12.3973 9.62988 13.2225 9.07575 14.1316 8.69775C15.0406 8.31963 16.0155 8.12488 17 8.12488C17.9845 8.12488 18.9594 8.31963 19.8684 8.69775C20.7775 9.07575 21.6027 9.62988 22.2969 10.3281C22.3125 10.3281 22.3125 10.3281 22.3125 10.3438L23.0469 11.0938L23.2656 9.79688C23.3195 9.4695 23.5012 9.177 23.7707 8.98363C24.0404 8.79025 24.3757 8.71175 24.7031 8.76563C25.0305 8.8195 25.3231 9.00125 25.5165 9.27088C25.7099 9.54038 25.7882 9.87575 25.7344 10.2031Z" fill="#87CDFF"/>
</svg>
