<svg width="36" height="26" viewBox="0 0 36 26" fill="none" xmlns="http://www.w3.org/2000/svg">
<path d="M32.75 0.5H7.75C7.08696 0.5 6.45108 0.763388 5.98224 1.23224C5.51339 1.70108 5.25 2.33696 5.25 3V21.75C5.25 22.0815 5.1183 22.3995 4.88389 22.6339C4.64946 22.8682 4.33152 23 4 23C3.66847 23 3.35054 22.8682 3.11611 22.6339C2.8817 22.3995 2.75 22.0815 2.75 21.75V6.75C2.75 6.4185 2.6183 6.1005 2.38389 5.86613C2.14946 5.63175 1.83152 5.5 1.5 5.5C1.16848 5.5 0.850537 5.63175 0.616112 5.86613C0.3817 6.1005 0.25 6.4185 0.25 6.75V21.75C0.25 22.7445 0.645088 23.6984 1.34835 24.4016C2.05161 25.1049 3.00544 25.5 4 25.5H31.5C32.4933 25.4959 33.4448 25.0995 34.1471 24.3971C34.8495 23.6947 35.2459 22.7432 35.25 21.75V3C35.25 2.33696 34.9866 1.70108 34.5177 1.23224C34.0489 0.763388 33.413 0.5 32.75 0.5ZM26.5 16.75H14C13.6685 16.75 13.3505 16.6182 13.1161 16.3839C12.8818 16.1495 12.75 15.8315 12.75 15.5C12.75 15.1685 12.8818 14.8505 13.1161 14.6161C13.3505 14.3818 13.6685 14.25 14 14.25H26.5C26.8315 14.25 27.1495 14.3818 27.3839 14.6161C27.6182 14.8505 27.75 15.1685 27.75 15.5C27.75 15.8315 27.6182 16.1495 27.3839 16.3839C27.1495 16.6182 26.8315 16.75 26.5 16.75ZM26.5 11.75H14C13.6685 11.75 13.3505 11.6182 13.1161 11.3839C12.8818 11.1495 12.75 10.8315 12.75 10.5C12.75 10.1685 12.8818 9.8505 13.1161 9.61613C13.3505 9.38175 13.6685 9.25 14 9.25H26.5C26.8315 9.25 27.1495 9.38175 27.3839 9.61613C27.6182 9.8505 27.75 10.1685 27.75 10.5C27.75 10.8315 27.6182 11.1495 27.3839 11.3839C27.1495 11.6182 26.8315 11.75 26.5 11.75Z" fill="#E48D8B"/>
</svg>
