<svg width="28" height="34" viewBox="0 0 28 34" fill="none" xmlns="http://www.w3.org/2000/svg">
<path d="M26.5 0.75H5.25C3.92519 0.754125 2.65581 1.28223 1.71901 2.21901C0.782225 3.15581 0.254125 4.42519 0.25 5.75V32C0.25 32.3315 0.3817 32.6495 0.616113 32.8839C0.850538 33.1182 1.16848 33.25 1.5 33.25H24C24.3315 33.25 24.6495 33.1182 24.8839 32.8839C25.1182 32.6495 25.25 32.3315 25.25 32C25.25 31.6685 25.1182 31.3505 24.8839 31.1161C24.6495 30.8818 24.3315 30.75 24 30.75H2.75C2.75 30.087 3.01339 29.4511 3.48224 28.9823C3.95108 28.5134 4.58696 28.25 5.25 28.25H26.5C26.8315 28.25 27.1495 28.1182 27.3839 27.8839C27.6182 27.6495 27.75 27.3315 27.75 27V2C27.75 1.66848 27.6182 1.35054 27.3839 1.11611C27.1495 0.8817 26.8315 0.75 26.5 0.75ZM22.75 15.75L18.75 12.75C18.6429 12.6664 18.5109 12.621 18.375 12.621C18.2391 12.621 18.1071 12.6664 18 12.75L14 15.75V3.25H22.75V15.75Z" fill="#B1B1B1"/>
</svg>
