<svg width="32" height="31" viewBox="0 0 32 31" fill="none" xmlns="http://www.w3.org/2000/svg">
<path d="M31.5 26.5625L25.0312 2.4063C24.8592 1.7661 24.4399 1.22046 23.8656 0.889346C23.2913 0.558246 22.609 0.468796 21.9688 0.640671L17.1406 1.93755L16.9844 1.98442C16.7515 1.67891 16.4513 1.43117 16.1071 1.26046C15.763 1.08975 15.3841 1.00063 15 1.00005H10C9.56013 1.00123 9.12862 1.11991 8.75 1.3438C8.37138 1.11991 7.93988 1.00123 7.5 1.00005H2.5C1.83696 1.00005 1.20108 1.26343 0.732238 1.73228C0.263388 2.20112 0 2.83701 0 3.50005V28.5C0 29.1631 0.263388 29.799 0.732238 30.2679C1.20108 30.7366 1.83696 31 2.5 31H7.5C7.93988 30.9989 8.37138 30.8802 8.75 30.6562C9.12862 30.8802 9.56013 30.9989 10 31H15C15.663 31 16.2989 30.7366 16.7677 30.2679C17.2366 29.799 17.5 29.1631 17.5 28.5V12.9375L21.8438 29.1406C21.9853 29.6746 22.2997 30.1466 22.7379 30.483C23.176 30.8194 23.7133 31.0012 24.2656 31C24.4813 30.9962 24.696 30.9701 24.9062 30.9219L29.7344 29.625C30.3746 29.453 30.9202 29.0337 31.2514 28.4594C31.5824 27.8851 31.6719 27.2027 31.5 26.5625ZM22.6094 3.06255L23.5938 6.67192L18.7656 7.9688L17.7812 4.35942L22.6094 3.06255ZM15 3.50005V22.25H10V3.50005H15ZM7.5 3.50005V7.25005H2.5V3.50005H7.5ZM15 28.5H10V24.75H15V28.5ZM29.0938 27.2031L24.2656 28.5L23.2812 24.875L28.125 23.5781L29.0938 27.2031Z" fill="#B1B1B1"/>
</svg>
