<svg width="40" height="29" viewBox="0 0 40 29" fill="none" xmlns="http://www.w3.org/2000/svg">
<path d="M9.99999 15.875C10.0021 16.0397 9.97119 16.2032 9.90911 16.3558C9.84704 16.5085 9.75504 16.6471 9.63855 16.7636C9.52205 16.8801 9.38342 16.972 9.23081 17.0341C9.07821 17.0962 8.91473 17.1271 8.74999 17.125H1.87499C1.64276 17.1231 1.41543 17.0581 1.21727 16.9371C1.01912 16.816 0.857599 16.6432 0.749988 16.4375C0.649922 16.228 0.608694 15.9951 0.630711 15.764C0.652727 15.5327 0.737164 15.3118 0.874989 15.125C1.98121 13.64 3.45735 12.471 5.15624 11.7343C4.42623 11.0661 3.86534 10.2341 3.51975 9.30672C3.17416 8.37935 3.05374 7.3831 3.1684 6.40011C3.28306 5.4171 3.62953 4.47536 4.17928 3.65242C4.72903 2.82947 5.46635 2.14885 6.33056 1.66656C7.19478 1.18427 8.16116 0.91411 9.15019 0.878298C10.1392 0.842498 11.1226 1.04207 12.0194 1.46061C12.9163 1.87915 13.7009 2.50467 14.3086 3.28571C14.9165 4.06675 15.3301 4.98096 15.5156 5.95311C15.5619 6.20631 15.5298 6.46757 15.4236 6.7021C15.3176 6.9366 15.1425 7.13322 14.9219 7.2656C12.901 8.46397 11.364 10.3327 10.5781 12.5468C10.1907 13.6135 9.99499 14.7402 9.99999 15.875ZM39.125 15.125C38.0188 13.64 36.5426 12.471 34.8438 11.7343C35.5738 11.0661 36.1346 10.2341 36.4803 9.30672C36.8258 8.37935 36.9463 7.3831 36.8316 6.40011C36.7169 5.4171 36.3704 4.47536 35.8206 3.65242C35.2709 2.82947 34.5336 2.14885 33.6694 1.66656C32.8051 1.18427 31.8388 0.91411 30.8498 0.878298C29.8608 0.842498 28.8774 1.04207 27.9805 1.46061C27.0838 1.87915 26.2991 2.50467 25.6913 3.28571C25.0835 4.06675 24.6698 4.98096 24.4844 5.95311C24.4381 6.20631 24.4701 6.46757 24.5763 6.7021C24.6824 6.9366 24.8574 7.13322 25.0781 7.2656C27.1016 8.46085 28.6395 10.3307 29.4219 12.5468C29.8093 13.6135 30.005 14.7402 30 15.875C29.9979 16.0397 30.0288 16.2032 30.0909 16.3558C30.1529 16.5085 30.2449 16.6471 30.3614 16.7636C30.4779 16.8801 30.6165 16.972 30.7691 17.0341C30.9218 17.0962 31.0853 17.1271 31.25 17.125H38.125C38.3571 17.125 38.5846 17.0603 38.7821 16.9383C38.9796 16.8162 39.1393 16.6416 39.243 16.434C39.3469 16.2263 39.3908 15.994 39.3699 15.7627C39.3491 15.5315 39.2643 15.3107 39.125 15.125ZM24.5625 21.8281C25.8065 20.8746 26.7205 19.5552 27.1761 18.0556C27.6318 16.5558 27.606 14.951 27.1026 13.4666C26.5991 11.9822 25.6434 10.6928 24.3694 9.77972C23.0954 8.8666 21.5674 8.37547 20 8.37547C18.4325 8.37547 16.9045 8.8666 15.6306 9.77972C14.3566 10.6928 13.4008 11.9822 12.8974 13.4666C12.3939 14.951 12.3682 16.5558 12.8238 18.0556C13.2794 19.5552 14.1935 20.8746 15.4375 21.8281C13.007 22.9071 11.0367 24.8111 9.87499 27.2031C9.78255 27.3932 9.74117 27.6041 9.75485 27.815C9.76855 28.026 9.83688 28.2297 9.95311 28.4062C10.0613 28.5873 10.2146 28.7372 10.3982 28.8413C10.5817 28.9455 10.789 29.0001 11 29H29C29.2109 29.0001 29.4183 28.9455 29.6019 28.8413C29.7854 28.7372 29.9386 28.5873 30.0469 28.4062C30.1631 28.2297 30.2314 28.026 30.2451 27.815C30.2588 27.6041 30.2174 27.3932 30.125 27.2031C28.9633 24.8111 26.9929 22.9071 24.5625 21.8281Z" fill="#017CFF"/>
</svg>
