<svg width="20" height="20" viewBox="0 0 20 20" fill="none" xmlns="http://www.w3.org/2000/svg">
<path d="M9.07088 0.833047C9.41462 0.0165876 10.5854 0.0165887 10.9291 0.833049L12.9579 5.65194C13.1029 5.99614 13.4306 6.23131 13.8067 6.2611L19.0727 6.67818C19.9649 6.74885 20.3267 7.84884 19.6469 8.4241L15.6348 11.8194C15.3482 12.0619 15.223 12.4425 15.3106 12.805L16.5363 17.8817C16.744 18.7418 15.7969 19.4217 15.033 18.9608L10.5245 16.2403C10.2025 16.0459 9.7975 16.0459 9.47548 16.2403L4.96699 18.9608C4.20311 19.4217 3.25596 18.7418 3.46363 17.8817L4.68942 12.805C4.77698 12.4425 4.65182 12.0619 4.36526 11.8194L0.353062 8.4241C-0.326718 7.84884 0.035068 6.74885 0.927291 6.67818L6.19336 6.2611C6.5695 6.23131 6.89716 5.99614 7.04207 5.65194L9.07088 0.833047Z" fill="#E48D8B"/>
</svg>
